<svg xmlns="http://www.w3.org/2000/svg" xml:space="preserve" viewBox="0 0 100 100">
  <path fill="#53C2BA" d="M83.951 7.314 67.945 23.322 28.636 13.13l-5.812 5.826 32.019 17.469-16.016 16.016-15.95-3.96-2.726 2.734 22.706 14.656 20.715-20.72 17.466 32.022 5.821-5.817-10.185-39.304L92.677 16.04a6.163 6.163 0 0 0 .004-8.734 6.169 6.169 0 0 0-8.73.008z"/>
  <path fill="#53C2BA" d="m28.636 13.13-5.813 5.826 32.019 17.469 13.103-13.103z"/>
  <g fill="#F1B57D">
    <path d="M5 36.065 20.324 20.74l.717.716L5.716 36.78zM12.825 35.633 25.11 23.35l.716.716L13.542 36.35zM21.976 33.877l7.917-7.917.716.716-7.916 7.917zM29.057 34.188l5.62-5.62.716.717-5.62 5.62zM35.5 35.14l3.961-3.962.716.717-3.962 3.961zM41.504 35.937l2.358-2.357.716.716-2.357 2.357zM46.36 37.618l1.639-1.64.716.716-1.64 1.64z"/>
  </g>
  <g fill="#F1B57D">
    <path d="M63.216 94.286 78.54 78.961l.717.716-15.326 15.326zM63.648 86.46 75.93 74.176l.716.716-12.282 12.283zM65.404 77.308l7.917-7.917.716.717-7.917 7.916zM65.09 70.228l5.62-5.62.717.716-5.62 5.62zM64.139 63.779l3.96-3.961.717.716-3.961 3.961zM63.341 57.778l2.358-2.357.716.716-2.357 2.357zM61.664 52.925l1.64-1.64.716.716-1.64 1.64z"/>
  </g>
  <g fill="#FFF">
    <path d="M85.885 11.48a.506.506 0 0 0-.716 0l-1.254 1.254a.506.506 0 1 0 .716.716l1.254-1.254a.506.506 0 0 0 0-.716zM54.825 41.825 52.18 44.47a.506.506 0 1 0 .716.716l2.645-2.645a.506.506 0 1 0-.716-.716zM65.403 31.246l-2.645 2.645a.506.506 0 1 0 .716.716l2.645-2.645a.506.506 0 1 0-.716-.716zM70.693 25.957l-2.645 2.645a.506.506 0 1 0 .716.716l2.645-2.645a.506.506 0 1 0-.716-.716zM81.271 15.378l-2.645 2.645a.506.506 0 1 0 .716.716l2.645-2.645a.506.506 0 1 0-.716-.716zM75.982 20.667l-2.645 2.645a.506.506 0 1 0 .716.716l2.645-2.645a.506.506 0 1 0-.716-.716zM60.114 36.536l-2.645 2.645a.506.506 0 1 0 .716.716l2.645-2.645a.506.506 0 1 0-.716-.716zM49.536 47.115l-2.645 2.645a.506.506 0 1 0 .716.716l2.645-2.645a.506.506 0 1 0-.716-.716zM44.247 52.404l-1.253 1.253a.506.506 0 1 0 .716.716l1.253-1.253a.506.506 0 1 0-.716-.716z"/>
  </g>
  <path fill="#136296" d="M95 11.674a6.651 6.651 0 0 0-1.961-4.727c-2.604-2.6-6.841-2.596-9.446.009L67.792 22.759 28.763 12.64a.506.506 0 0 0-.486.132l-5.813 5.826a.504.504 0 0 0 .117.802l31.424 17.145-15.334 15.336-15.672-3.891a.51.51 0 0 0-.481.134l-2.726 2.734a.508.508 0 0 0 .084.783l22.706 14.656a.507.507 0 0 0 .633-.067l20.236-20.242 17.142 31.428a.508.508 0 0 0 .802.116l5.821-5.817a.506.506 0 0 0 .132-.485L77.237 32.205l15.797-15.807A6.63 6.63 0 0 0 95 11.674zm-66.21 2.019 38.171 9.897-12.209 12.209-31.093-16.964 5.131-5.142zm48.13 17.396-.952-3.248-.972.285 1.192 4.069 10.108 39.009-5.138 5.134-17.142-31.43a.51.51 0 0 0-.444-.264.506.506 0 0 0-.358.148L42.788 65.224 20.952 51.129l2.081-2.087 15.672 3.891a.504.504 0 0 0 .48-.134L55.2 36.783 68.303 23.68 84.31 7.672c2.21-2.21 5.805-2.213 8.013-.009a5.643 5.643 0 0 1 1.665 4.011 5.627 5.627 0 0 1-1.668 4.007l-15.4 15.408z"/>
</svg>
